<svg width="16" height="17" viewBox="0 0 16 17" fill="none" xmlns="http://www.w3.org/2000/svg">
<path d="M14.3125 0.875H1.9375C0.988281 0.875 0.25 1.64844 0.25 2.5625V14.9375C0.25 15.8867 0.988281 16.625 1.9375 16.625H14.3125C15.2266 16.625 16 15.8867 16 14.9375V2.5625C16 1.64844 15.2266 0.875 14.3125 0.875ZM13.1875 9.73438C13.1875 9.98047 12.9766 10.1562 12.7656 10.1562H9.53125V13.3906C9.53125 13.6367 9.32031 13.8125 9.10938 13.8125H7.14062C6.89453 13.8125 6.71875 13.6367 6.71875 13.3906V10.1562H3.48438C3.23828 10.1562 3.0625 9.98047 3.0625 9.73438V7.76562C3.0625 7.55469 3.23828 7.34375 3.48438 7.34375H6.71875V4.10938C6.71875 3.89844 6.89453 3.6875 7.14062 3.6875H9.10938C9.32031 3.6875 9.53125 3.89844 9.53125 4.10938V7.34375H12.7656C12.9766 7.34375 13.1875 7.55469 13.1875 7.76562V9.73438Z" fill="#0047FF"/>
</svg>
