<svg width="18" height="18" viewBox="0 0 18 18" fill="none" xmlns="http://www.w3.org/2000/svg">
<path d="M9 0.03125C4.18359 0.03125 0.28125 3.93359 0.28125 8.75C0.28125 13.5664 4.18359 17.4688 9 17.4688C13.8164 17.4688 17.7188 13.5664 17.7188 8.75C17.7188 3.93359 13.8164 0.03125 9 0.03125ZM13.2539 11.0703C13.4297 11.2109 13.4297 11.4922 13.2539 11.668L11.8828 13.0391C11.707 13.2148 11.4258 13.2148 11.2852 13.0391L9 10.7188L6.67969 13.0391C6.53906 13.2148 6.25781 13.2148 6.08203 13.0391L4.71094 11.6328C4.53516 11.4922 4.53516 11.2109 4.71094 11.0352L7.03125 8.75L4.71094 6.46484C4.53516 6.32422 4.53516 6.04297 4.71094 5.86719L6.11719 4.49609C6.25781 4.32031 6.53906 4.32031 6.71484 4.49609L9 6.78125L11.2852 4.49609C11.4258 4.32031 11.707 4.32031 11.8828 4.49609L13.2539 5.86719C13.4297 6.04297 13.4297 6.32422 13.2539 6.46484L10.9688 8.75L13.2539 11.0703Z" fill="#151617"/>
</svg>
