<svg width="22" height="19" viewBox="0 0 22 19" fill="none" xmlns="http://www.w3.org/2000/svg">
<path d="M14.9035 3.20742C14.7627 3.06659 14.5515 3.06659 14.4106 3.20742L6.73533 10.8827L6.38325 14.1571C6.31284 14.5795 6.70012 14.9668 7.12262 14.8964L10.3969 14.5443L18.0722 6.86903C18.2131 6.7282 18.2131 6.51695 18.0722 6.37612L14.9035 3.20742ZM20.6072 2.39764L18.882 0.672455C18.3539 0.144338 17.4737 0.144338 16.9456 0.672455L15.7133 1.90473C15.5725 2.04556 15.5725 2.25681 15.7133 2.39764L18.882 5.56634C19.0229 5.70717 19.2341 5.70717 19.3749 5.56634L20.6072 4.33407C21.1353 3.80595 21.1353 2.92576 20.6072 2.39764ZM14.2698 12.4671V16.0231H3.0033V4.75656H11.0659C11.2067 4.75656 11.3123 4.72135 11.3828 4.65094L12.7911 3.24263C13.0375 2.96096 12.8615 2.50326 12.4742 2.50326H2.43998C1.48936 2.50326 0.75 3.27783 0.75 4.19324V16.5864C0.75 17.537 1.48936 18.2764 2.43998 18.2764H14.8331C15.7485 18.2764 16.5231 17.537 16.5231 16.5864V11.0588C16.5231 10.6715 16.0654 10.4954 15.7837 10.7419L14.3754 12.1502C14.305 12.2206 14.2698 12.3262 14.2698 12.4671Z" fill="#151617"/>
</svg>
