<svg width="16" height="17" viewBox="0 0 16 17" fill="none" xmlns="http://www.w3.org/2000/svg">
<path d="M15.2227 4.32031L12.3047 1.40234C11.9883 1.08594 11.5664 0.875 11.1094 0.875H1.6875C0.738281 0.875 0 1.64844 0 2.5625V14.9375C0 15.8867 0.738281 16.625 1.6875 16.625H14.0625C14.9766 16.625 15.75 15.8867 15.75 14.9375V5.51562C15.75 5.05859 15.5391 4.63672 15.2227 4.32031ZM7.875 14.375C6.60938 14.375 5.625 13.3906 5.625 12.125C5.625 10.8945 6.60938 9.875 7.875 9.875C9.10547 9.875 10.125 10.8945 10.125 12.125C10.125 13.3906 9.10547 14.375 7.875 14.375ZM11.25 3.6875V7.20312C11.25 7.44922 11.0391 7.625 10.8281 7.625H2.67188C2.42578 7.625 2.25 7.44922 2.25 7.20312V3.54688C2.25 3.33594 2.42578 3.125 2.67188 3.125H10.6875C10.793 3.125 10.8984 3.19531 11.0039 3.26562L11.1094 3.37109C11.1797 3.47656 11.25 3.58203 11.25 3.6875Z" fill="#0047FF"/>
</svg>
