<svg width="377" height="243" viewBox="0 0 377 243" fill="none" xmlns="http://www.w3.org/2000/svg">
<path d="M320.652 165.618C320.41 164.068 318.957 163.011 317.402 163.252C315.852 163.493 314.794 164.946 315.041 166.496C315.446 169.145 315.965 177.441 313.105 180.778C312.484 181.502 311.735 181.933 310.795 182.102L311.057 166.306C311.093 164.012 309.245 162.133 306.945 162.133C304.635 162.133 302.782 164.032 302.843 166.342L303.582 196.317C302.597 196.163 301.816 195.727 301.18 194.983C298.315 191.641 298.834 183.35 299.244 180.701C299.486 179.151 298.423 177.698 296.873 177.451C295.317 177.21 293.87 178.273 293.623 179.823C293.423 181.127 291.775 192.739 296.857 198.674C298.603 200.712 300.964 201.867 303.726 202.051L304.044 215.096H310.251L310.703 187.837C313.398 187.626 315.708 186.476 317.428 184.469C322.5 178.54 320.857 166.922 320.652 165.618Z" fill="#BDBDBD"/>
<path d="M55.8077 191.033C55.6542 190.042 54.728 189.367 53.7413 189.52C52.75 189.679 52.0751 190.605 52.2287 191.591C52.4893 193.281 52.8198 198.568 50.9954 200.695C50.5998 201.156 50.125 201.43 49.5246 201.542L49.6923 191.47C49.7156 190.004 48.5379 188.808 47.0719 188.808C45.6011 188.808 44.4192 190.018 44.4564 191.494L44.9264 210.604C44.298 210.501 43.8047 210.222 43.3951 209.747C41.5707 207.62 41.9012 202.333 42.1618 200.644C42.3154 199.657 41.6405 198.731 40.6492 198.577C39.6625 198.419 38.7364 199.099 38.5828 200.085C38.4525 200.918 37.4052 208.319 40.6399 212.102C41.7522 213.401 43.2603 214.141 45.0195 214.253L45.2243 222.574H49.1756L49.4642 205.196C51.1862 205.061 52.6569 204.325 53.7506 203.05C56.9853 199.266 55.9381 191.866 55.8077 191.033Z" fill="#BDBDBD"/>
<path fill-rule="evenodd" clip-rule="evenodd" d="M377 242.317C326.392 231.398 260.52 224.796 188.496 224.796C116.474 224.796 50.6054 231.397 0 242.316C31.0398 216.315 103.749 198.068 188.497 198.068C273.246 198.068 345.959 216.316 377 242.317Z" fill="#E7E7E7"/>
<path d="M221.152 182.707C221.152 182.707 221.031 189.679 221.148 190.377C221.264 191.075 218.42 195.156 217.257 194.975C216.093 194.793 213.766 194.407 213.431 194.021C213.096 193.63 213.245 192.718 213.361 191.88C213.482 191.047 214.353 183.456 214.353 183.07C214.353 182.683 219.858 181.65 221.152 182.707Z" fill="#FFD3BC"/>
<path d="M216.637 189.972C215.185 190.758 214.366 193.155 214.161 193.183C213.952 193.211 213.57 193.155 213.57 192.918C213.57 192.681 213.631 191.88 213.361 191.88C213.096 191.88 212.802 193.183 212.742 195.077C212.681 196.967 212.011 201.477 212.742 202.049C213.203 202.412 217.415 204.623 217.531 204.921C217.647 205.214 217.443 207.285 217.796 207.611C218.15 207.937 218.979 208.733 219.63 208.761C220.282 208.793 224.033 209.175 225.811 208.761C227.584 208.346 229.827 207.49 229.888 207.253C229.948 207.02 229.446 201.993 228.883 201.37C228.319 200.751 224.27 195.194 223.945 194.691C223.619 194.188 223.386 192.974 223.386 192.266C223.386 191.559 222.744 190.009 221.548 189.637C220.305 189.246 217.731 189.381 216.637 189.972Z" fill="url(#paint0_linear)"/>
<path d="M178.674 186.737C178.674 186.737 178.674 190.796 178.557 191.494C178.441 192.192 181.284 196.278 182.448 196.097C183.612 195.915 185.939 195.529 186.274 195.138C186.614 194.752 186.465 193.835 186.344 193.002C186.223 192.169 185.473 187.486 185.473 187.1C185.473 186.714 179.967 185.676 178.674 186.737Z" fill="#FFD3BC"/>
<path d="M182.42 97.1863C180.777 103.172 177.659 123.682 177.659 133.652C177.659 143.616 176.663 169.033 176.663 172.896C176.663 176.759 176.249 186.341 177.245 186.839C178.245 187.337 180.573 188.836 183.733 188.338C186.898 187.84 187.726 185.843 187.81 184.01C187.893 182.181 188.643 169.042 189.392 163.964C190.141 158.891 192.804 149.108 194.549 142.811C196.294 136.519 200.371 123.859 201.451 123.906C202.535 123.957 209.27 151.687 209.829 153.26C210.392 154.828 211.462 177.159 211.532 179.03C211.602 180.905 211.532 182.711 212.709 183.475C213.892 184.238 217.499 186.109 219.37 186.248C221.245 186.388 222.492 183.405 222.842 182.502C223.191 181.599 223.805 151.733 223.581 143.542C223.363 135.35 224.01 120.071 223.628 115.086C223.251 110.106 222.032 99.4296 221.259 97.1863C220.482 94.9383 182.42 97.1863 182.42 97.1863Z" fill="#151617"/>
<path d="M170.794 27.5925C172.367 25.8472 179.698 17.5814 181.154 17.2882C182.611 16.9996 186.153 16.3574 186.939 15.5429C187.731 14.7284 191.072 4.24258 189.751 2.33438C188.429 0.426168 183.323 0.96607 181.778 4.21468C180.233 7.46329 180.307 9.16206 177.757 11.4054C175.206 13.6487 164.092 22.7336 163.054 23.6551C162.021 24.572 164.074 29.0307 165.698 29.8079C167.322 30.5805 170.794 27.5925 170.794 27.5925Z" fill="url(#paint1_linear)"/>
<path d="M191.058 30.1104C187.312 30.897 181.089 31.5625 179.032 32.2281C176.98 32.889 168.881 35.7327 168.942 34.5226C169.002 33.3125 172.688 27.9975 172.023 27.4529C171.357 26.9084 167.369 26.2428 166.703 25.3958C166.038 24.5487 165.135 22.5568 164.227 22.7988C163.32 23.0408 152.81 32.8285 153.527 36.5797C155.226 45.4133 180.065 51.8547 180.633 55.7084C181.201 59.562 178.706 96.5114 180.065 97.8751C181.424 99.2341 195.82 104.447 203.075 104.903C210.331 105.354 223.056 102.827 223.749 100.919C224.447 99.0061 220.212 62.294 220.701 62.294C221.194 62.294 221.334 73.8503 226.858 76.8383C230.507 78.8116 235.524 76.7778 236.483 75.6887C237.447 74.6043 233.058 59.2362 231.07 54.0561C229.083 48.8714 227.184 38.1668 222.693 34.3644C218.201 30.5666 211.863 31.2135 209.68 30.3199C207.497 29.4263 200.176 30.0639 198.328 29.8731C196.485 29.6823 191.058 30.1104 191.058 30.1104Z" fill="#0267FF"/>
<path d="M237.863 68.7439C237.863 68.7439 231.404 70.6974 230.899 71.3703C230.395 72.0433 229.502 74.7304 230.899 75.8473C232.297 76.9689 233.834 77.8054 235.498 76.5156C237.157 75.2211 238.671 73.4827 239.629 73.263C240.592 73.0434 243.461 73.4546 244.662 72.9826C245.868 72.5106 248.158 63.3743 247.233 62.8182C246.312 62.2668 237.863 68.7439 237.863 68.7439Z" fill="url(#paint2_linear)"/>
<path d="M191.091 28.8771C189.006 28.4443 184.98 24.5068 184.612 20.5089C184.249 16.6087 181.387 5.65748 191.361 1.55251C200.72 -2.30114 210.35 1.66418 211.737 6.41609C213.031 10.8562 202.042 11.0517 198.016 13.9466C193.986 16.8368 193.711 18.7543 192.706 18.2982C191.7 17.8421 191.091 28.8771 191.091 28.8771Z" fill="#E64D4E"/>
<path d="M190.919 21.0721C190.788 22.8593 190.341 31.4927 191.086 32.7633C191.775 33.9315 192.994 37.3244 197.779 37.1708C202.559 37.0219 205.663 32.2374 205.924 31.6789C206.184 31.1157 205.626 24.2043 205.626 23.0454C205.626 21.8865 199.198 19.1592 196.62 19.2337C194.042 19.3082 191.044 19.3966 190.919 21.0721Z" fill="url(#paint3_linear)"/>
<path d="M191.361 21.1C191.901 21.0814 191.263 24.3719 192.241 25.447C193.218 26.5268 197.472 32.1304 201.973 31.5812C205.868 31.1112 205.31 27.7555 205.868 24.9956C206.38 22.487 207.995 22.2682 208.563 15.7245C208.787 13.1879 209.983 9.22257 207.781 8.49186C205.584 7.75651 197.323 5.80176 195.271 8.49186C193.218 11.1773 193.023 17.628 191.948 16.7996C190.873 15.9665 188.625 11.9127 187.303 14.1095C185.986 16.3109 188.476 21.1838 191.361 21.1Z" fill="#F2DAD4"/>
<path d="M226.109 54.5788L213.008 71.1441C212.327 72.0043 212.957 73.2735 214.057 73.2547L238.265 72.841C238.669 72.8363 239.045 72.6436 239.285 72.3193L251.662 55.7821C252.245 54.9971 251.686 53.8831 250.708 53.8925L227.12 54.0852C226.725 54.0899 226.354 54.2732 226.109 54.5788Z" fill="url(#paint4_linear)"/>
<path d="M246.825 61.2542C245.546 61.3807 243.696 62.0975 243.696 62.7628C243.696 63.4328 245.186 63.6155 245.593 63.6764C246.006 63.7373 246.54 63.8685 246.385 64.07C246.23 64.2761 245.926 65.3021 245.106 65.1241C244.286 64.9414 240.697 64.8898 240.004 64.8898C239.315 64.8898 238.491 65.3771 238.444 65.8925C238.392 66.4032 238.238 66.5062 237.825 66.5296C237.418 66.5577 236.673 66.9419 236.673 67.6072C236.673 68.2725 238.322 68.8722 238.322 69.1112C238.322 69.3454 241.55 71.3178 242.183 71.6833C242.815 72.0487 244 72.9858 244.666 72.9858C245.331 72.9858 246.446 72.3486 246.53 71.435C246.615 70.5167 247.931 69.8514 247.945 69.4016C247.964 68.9519 247.533 68.6192 247.584 68.3381C247.631 68.0523 248.779 67.6541 248.779 66.9373C248.779 66.2204 248.329 65.2553 248.264 64.9555C248.198 64.6556 247.931 64.0044 248.198 63.9247C248.461 63.8404 249.398 62.9736 249.229 62.1725C249.06 61.376 247.411 61.1933 246.825 61.2542Z" fill="#FFD3BC"/>
<path d="M183.067 191.093C184.524 191.88 185.338 194.272 185.548 194.3C185.753 194.333 186.139 194.272 186.139 194.035C186.139 193.797 186.078 193.002 186.344 193.002C186.609 193.002 186.907 194.3 186.963 196.194C187.023 198.084 187.698 202.598 186.963 203.171C186.507 203.529 182.295 205.745 182.178 206.038C182.057 206.336 182.267 208.402 181.908 208.728C181.555 209.054 180.726 209.854 180.075 209.882C179.428 209.91 175.672 210.296 173.898 209.882C172.125 209.468 169.877 208.612 169.817 208.374C169.761 208.137 170.264 203.11 170.822 202.491C171.385 201.872 175.434 196.311 175.76 195.808C176.086 195.305 176.323 194.095 176.323 193.388C176.323 192.676 176.966 191.126 178.157 190.754C179.404 190.367 181.973 190.502 183.067 191.093Z" fill="url(#paint5_linear)"/>
<defs>
<linearGradient id="paint0_linear" x1="224.405" y1="197.46" x2="213.82" y2="205.485" gradientUnits="userSpaceOnUse">
<stop stop-color="#4E9CFF"/>
<stop offset="0.984364" stop-color="#176AD4"/>
<stop offset="1" stop-color="#176AD4"/>
</linearGradient>
<linearGradient id="paint1_linear" x1="194.256" y1="17.5349" x2="174.235" y2="15.3006" gradientUnits="userSpaceOnUse">
<stop stop-color="#F2BFAD"/>
<stop offset="1" stop-color="#F2DAD4"/>
</linearGradient>
<linearGradient id="paint2_linear" x1="242.064" y1="69.0664" x2="243.087" y2="86.4069" gradientUnits="userSpaceOnUse">
<stop stop-color="#F2BFAD"/>
<stop offset="0.704322" stop-color="#F2DAD4"/>
<stop offset="1" stop-color="#F2DAD4"/>
</linearGradient>
<linearGradient id="paint3_linear" x1="196.853" y1="24.7209" x2="203.472" y2="38.5457" gradientUnits="userSpaceOnUse">
<stop stop-color="#F2BFAD"/>
<stop offset="1" stop-color="#F2DAD4"/>
</linearGradient>
<linearGradient id="paint4_linear" x1="235.285" y1="48.717" x2="246.925" y2="70.1314" gradientUnits="userSpaceOnUse">
<stop stop-color="#F6DBDB"/>
<stop offset="1" stop-color="#EB9A99"/>
</linearGradient>
<linearGradient id="paint5_linear" x1="175.299" y1="198.582" x2="185.885" y2="206.606" gradientUnits="userSpaceOnUse">
<stop stop-color="#4E9CFF"/>
<stop offset="0.984364" stop-color="#176AD4"/>
<stop offset="1" stop-color="#176AD4"/>
</linearGradient>
</defs>
</svg>
