<svg width="393" height="61" viewBox="0 0 393 61" fill="none" xmlns="http://www.w3.org/2000/svg">
<path d="M122 59.9139C120.343 59.9139 119 58.5708 119 56.9139V4.08606C119 2.4292 120.343 1.08606 122 1.08606H133.368C134.5 1.08606 135.535 1.72285 136.045 2.73283L148.478 27.3323L154.136 40.4212C154.169 40.497 154.243 40.546 154.326 40.546C154.449 40.546 154.546 40.4381 154.531 40.3152C154.353 38.809 154.147 37.1663 153.913 35.3872C153.668 33.5168 153.453 31.6162 153.269 29.6855C153.084 27.6944 152.9 25.7334 152.716 23.8027C152.593 21.8116 152.532 19.911 152.532 18.1009V4.08606C152.532 2.4292 153.875 1.08606 155.532 1.08606H164.639C166.296 1.08606 167.639 2.4292 167.639 4.08606V56.9139C167.639 58.5708 166.296 59.9139 164.639 59.9139H153.274C152.141 59.9139 151.105 59.2755 150.595 58.2635L138.161 33.5771L132.504 20.5791C132.471 20.5031 132.396 20.454 132.313 20.454C132.189 20.454 132.093 20.5614 132.106 20.6845C132.469 24.0001 132.891 27.6037 133.371 31.4956C133.862 35.4777 134.108 39.2789 134.108 42.8991V56.9139C134.108 58.5708 132.764 59.9139 131.108 59.9139H122Z" fill="black"/>
<path d="M206.134 61C201.958 61 198.15 60.3061 194.711 58.9184C191.333 57.5307 188.416 55.5396 185.96 52.9451C183.564 50.2903 181.691 47.0623 180.34 43.2611C178.989 39.3996 178.314 35.0554 178.314 30.2285C178.314 25.4016 178.989 21.1177 180.34 17.3769C181.691 13.5757 183.564 10.408 185.96 7.87389C188.416 5.27943 191.333 3.3185 194.711 1.9911C198.15 0.663701 201.958 0 206.134 0C210.248 0 214.025 0.663701 217.464 1.9911C220.904 3.3185 223.821 5.27943 226.216 7.87389C228.672 10.4684 230.576 13.636 231.927 17.3769C233.278 21.1177 233.954 25.4016 233.954 30.2285C233.954 35.0554 233.278 39.3996 231.927 43.2611C230.576 47.0623 228.672 50.2903 226.216 52.9451C223.821 55.5396 220.904 57.5307 217.464 58.9184C214.025 60.3061 210.248 61 206.134 61ZM206.134 47.6053C209.757 47.6053 212.582 46.0668 214.609 42.9896C216.697 39.8521 217.741 35.5984 217.741 30.2285C217.741 24.8586 216.697 20.7255 214.609 17.8294C212.582 14.8729 209.757 13.3947 206.134 13.3947C202.51 13.3947 199.655 14.8729 197.567 17.8294C195.54 20.7255 194.527 24.8586 194.527 30.2285C194.527 35.5984 195.54 39.8521 197.567 42.9896C199.655 46.0668 202.51 47.6053 206.134 47.6053Z" fill="black"/>
<path d="M256.309 59.9139C254.652 59.9139 253.309 58.5708 253.309 56.9139V17.1187C253.309 15.4618 251.966 14.1187 250.309 14.1187H240.464C238.808 14.1187 237.464 12.7755 237.464 11.1187V4.08606C237.464 2.42921 238.808 1.08606 240.464 1.08606H281.998C283.655 1.08606 284.998 2.4292 284.998 4.08606V11.1187C284.998 12.7755 283.655 14.1187 281.998 14.1187H272.154C270.497 14.1187 269.154 15.4618 269.154 17.1187V56.9139C269.154 58.5708 267.811 59.9139 266.154 59.9139H256.309Z" fill="black"/>
<path d="M296.884 59.9139C295.227 59.9139 293.884 58.5708 293.884 56.9139V4.08606C293.884 2.4292 295.227 1.08606 296.884 1.08606H329.574C331.231 1.08606 332.574 2.4292 332.574 4.08606V11.1187C332.574 12.7755 331.231 14.1187 329.574 14.1187H312.728C311.071 14.1187 309.728 15.4618 309.728 17.1187V20.3501C309.728 22.007 311.071 23.3502 312.728 23.3502H326.257C327.914 23.3502 329.257 24.6933 329.257 26.3502V33.3828C329.257 35.0396 327.914 36.3828 326.257 36.3828H312.728C311.071 36.3828 309.728 37.7259 309.728 39.3828V43.8813C309.728 45.5382 311.071 46.8813 312.728 46.8813H330.495C332.152 46.8813 333.495 48.2245 333.495 49.8813V56.9139C333.495 58.5708 332.152 59.9139 330.495 59.9139H296.884Z" fill="black"/>
<path d="M348.071 59.9139C346.414 59.9139 345.071 58.5708 345.071 56.9139V4.08606C345.071 2.4292 346.414 1.08606 348.071 1.08606H367.733C370.926 1.08606 373.966 1.38774 376.852 1.9911C379.8 2.59446 382.349 3.62018 384.498 5.06825C386.709 6.51632 388.459 8.47725 389.749 10.951C391.039 13.3645 391.684 16.4115 391.684 20.092C391.684 24.3155 390.793 27.815 389.012 30.5905C387.834 32.493 386.366 34.1119 384.611 35.4474C383.265 36.4708 382.702 38.3205 383.539 39.7895L392.446 55.4293C393.585 57.4293 392.141 59.9139 389.839 59.9139H379.13C378.013 59.9139 376.989 59.2937 376.471 58.3041L367.837 41.7938C367.32 40.8042 366.296 40.184 365.179 40.184H363.916C362.259 40.184 360.916 41.5271 360.916 43.184V56.9139C360.916 58.5708 359.573 59.9139 357.916 59.9139H348.071ZM360.916 24.8754C360.916 26.5322 362.259 27.8754 363.916 27.8754H366.627C373.014 27.8754 376.208 25.2809 376.208 20.092C376.208 17.5579 375.379 15.8081 373.72 14.8427C372.124 13.8774 369.759 13.3947 366.627 13.3947H363.916C362.259 13.3947 360.916 14.7378 360.916 16.3947V24.8754Z" fill="black"/>
<path d="M0 3C0 1.34315 1.34315 0 3 0H44C45.6569 0 47 1.34315 47 3V12C47 13.6569 45.6569 15 44 15H3C1.34315 15 0 13.6569 0 12V3Z" fill="black"/>
<path d="M55 3C55 1.34315 56.3431 0 58 0H102C103.657 0 105 1.34315 105 3V12C105 13.6569 103.657 15 102 15H58C56.3431 15 55 13.6569 55 12V3Z" fill="black"/>
<path d="M0 26C0 24.3431 1.34315 23 3 23H26C27.6569 23 29 24.3431 29 26V35C29 36.6569 27.6569 38 26 38H3C1.34315 38 0 36.6569 0 35V26Z" fill="black"/>
<path d="M37 26C37 24.3431 38.3431 23 40 23H82C83.6569 23 85 24.3431 85 26V35C85 36.6569 83.6569 38 82 38H40C38.3431 38 37 36.6569 37 35V26Z" fill="black"/>
<path d="M0 49C0 47.3431 1.34315 46 3 46H27C28.6569 46 30 47.3431 30 49V58C30 59.6569 28.6569 61 27 61H3C1.34315 61 0 59.6569 0 58V49Z" fill="black"/>
<path d="M38 49C38 47.3431 39.3431 46 41 46H68C69.6569 46 71 47.3431 71 49V58C71 59.6569 69.6569 61 68 61H41C39.3431 61 38 59.6569 38 58V49Z" fill="black"/>
<path d="M79 49C79 47.3431 80.3431 46 82 46H102C103.657 46 105 47.3431 105 49V58C105 59.6569 103.657 61 102 61H82C80.3431 61 79 59.6569 79 58V49Z" fill="black"/>
</svg>
