<svg width="108" height="30" viewBox="0 0 108 30" fill="none" xmlns="http://www.w3.org/2000/svg">
<path fill-rule="evenodd" clip-rule="evenodd" d="M2.16056 0C0.96731 0 0 0.937074 0 2.09302V27.907C0 29.0629 0.96731 30 2.16056 30H19.8051C20.9984 30 21.9657 29.0629 21.9657 27.907V2.09302C21.9657 0.937074 20.9984 0 19.8051 0H2.16056ZM9.42514 10.1675H4.86125V7.67442H17.1044V10.1675H12.5405V21.9767H9.42514V10.1675Z" fill="#151617"/>
<path d="M25.9267 10.4647H30.3148V21.9541H33.3102V10.4647H37.6983V8.03908H25.9267V10.4647Z" fill="#151617"/>
<path d="M52.173 14.9966C52.173 10.4443 49.2616 7.84884 45.4614 7.84884C41.6402 7.84884 38.7498 10.4443 38.7498 14.9966C38.7498 19.5285 41.6402 22.1444 45.4614 22.1444C49.2616 22.1444 52.173 19.5489 52.173 14.9966ZM49.1007 14.9966C49.1007 17.9454 47.659 19.5421 45.4614 19.5421C43.2569 19.5421 41.8222 17.9454 41.8222 14.9966C41.8222 12.0478 43.2569 10.4511 45.4614 10.4511C47.659 10.4511 49.1007 12.0478 49.1007 14.9966Z" fill="#151617"/>
<path d="M54.4178 8.03908V21.9541H57.3572V12.8631H57.4762L61.1854 21.8862H63.187L66.8963 12.8971H67.0152V21.9541H69.9546V8.03908H66.2174L62.2702 17.3883H62.1022L58.1551 8.03908H54.4178Z" fill="#151617"/>
<path d="M75.4817 8.03908H72.4514V21.9541H75.4817V8.03908Z" fill="#151617"/>
<path d="M77.975 21.9541H81.0054V17.0213H83.2169L85.9324 21.9541H89.2777L86.2333 16.5457C87.8639 15.8663 88.7668 14.487 88.7668 12.5846C88.7668 9.81923 86.8842 8.03908 83.6298 8.03908H77.975V21.9541ZM81.0054 14.6569V10.4443H83.0489C84.7986 10.4443 85.6454 11.1985 85.6454 12.5846C85.6454 13.9638 84.7986 14.6569 83.0629 14.6569H81.0054Z" fill="#151617"/>
<path d="M93.9387 8.03908H90.9083V21.9541H93.9387V8.03908Z" fill="#151617"/>
<path d="M104.207 12.041H107.112C107.07 9.56104 104.97 7.84884 101.779 7.84884C98.6365 7.84884 96.3339 9.53386 96.3479 12.0614C96.341 14.1133 97.8316 15.2888 100.253 15.8527L101.814 16.2332C103.375 16.6001 104.242 17.0349 104.249 17.9726C104.242 18.9917 103.249 19.6848 101.709 19.6848C100.134 19.6848 99.0004 18.9782 98.9024 17.5853H95.97C96.047 20.5952 98.2655 22.1512 101.744 22.1512C105.243 22.1512 107.301 20.5273 107.308 17.9794C107.301 15.6625 105.502 14.4327 103.011 13.8891L101.723 13.5901C100.477 13.3116 99.4343 12.8631 99.4553 11.8644C99.4553 10.9675 100.274 10.3084 101.758 10.3084C103.207 10.3084 104.095 10.9471 104.207 12.041Z" fill="#151617"/>
</svg>
